<mxfile host="app.diagrams.net" modified="2022-08-29T14:57:50.489Z" agent="5.0 (Windows NT 10.0; Win64; x64) AppleWebKit/537.36 (KHTML, like Gecko) Chrome/104.0.0.0 Safari/537.36" etag="nyMycnPk8f4f28yKvhc8" version="20.2.7" type="github">
  <diagram id="9-ulB7Q57yaI7KhHF3rH" name="PÃ¡gina-1">
    <mxGraphModel dx="868" dy="442" grid="1" gridSize="10" guides="1" tooltips="1" connect="1" arrows="1" fold="1" page="1" pageScale="1" pageWidth="827" pageHeight="1169" math="0" shadow="0">
      <root>
        <mxCell id="0" />
        <mxCell id="1" parent="0" />
        <mxCell id="JcBuZ0mTesqjTfWFxaHW-1" value="Tela de entrada" style="rounded=0;whiteSpace=wrap;html=1;" vertex="1" parent="1">
          <mxGeometry x="80" y="30" width="120" height="60" as="geometry" />
        </mxCell>
        <mxCell id="JcBuZ0mTesqjTfWFxaHW-22" value="" style="edgeStyle=none;rounded=0;orthogonalLoop=1;jettySize=auto;html=1;" edge="1" parent="1" source="JcBuZ0mTesqjTfWFxaHW-2" target="JcBuZ0mTesqjTfWFxaHW-3">
          <mxGeometry relative="1" as="geometry" />
        </mxCell>
        <mxCell id="JcBuZ0mTesqjTfWFxaHW-2" value="login" style="rounded=0;whiteSpace=wrap;html=1;" vertex="1" parent="1">
          <mxGeometry x="80" y="140" width="120" height="60" as="geometry" />
        </mxCell>
        <mxCell id="JcBuZ0mTesqjTfWFxaHW-23" value="" style="edgeStyle=none;rounded=0;orthogonalLoop=1;jettySize=auto;html=1;" edge="1" parent="1" source="JcBuZ0mTesqjTfWFxaHW-3" target="JcBuZ0mTesqjTfWFxaHW-4">
          <mxGeometry relative="1" as="geometry" />
        </mxCell>
        <mxCell id="JcBuZ0mTesqjTfWFxaHW-24" value="" style="edgeStyle=none;rounded=0;orthogonalLoop=1;jettySize=auto;html=1;" edge="1" parent="1" source="JcBuZ0mTesqjTfWFxaHW-3" target="JcBuZ0mTesqjTfWFxaHW-5">
          <mxGeometry relative="1" as="geometry" />
        </mxCell>
        <mxCell id="JcBuZ0mTesqjTfWFxaHW-3" value="Fez login" style="rhombus;whiteSpace=wrap;html=1;" vertex="1" parent="1">
          <mxGeometry x="95" y="250" width="90" height="80" as="geometry" />
        </mxCell>
        <mxCell id="JcBuZ0mTesqjTfWFxaHW-4" value="Tela de Saldo" style="rounded=0;whiteSpace=wrap;html=1;" vertex="1" parent="1">
          <mxGeometry x="240" y="260" width="120" height="60" as="geometry" />
        </mxCell>
        <mxCell id="JcBuZ0mTesqjTfWFxaHW-5" value="Exibe mensagem de erro" style="rounded=0;whiteSpace=wrap;html=1;" vertex="1" parent="1">
          <mxGeometry x="80" y="360" width="120" height="60" as="geometry" />
        </mxCell>
        <mxCell id="JcBuZ0mTesqjTfWFxaHW-9" value="" style="endArrow=classic;html=1;rounded=0;exitX=0.5;exitY=1;exitDx=0;exitDy=0;entryX=0.5;entryY=0;entryDx=0;entryDy=0;" edge="1" parent="1" source="JcBuZ0mTesqjTfWFxaHW-1" target="JcBuZ0mTesqjTfWFxaHW-2">
          <mxGeometry width="50" height="50" relative="1" as="geometry">
            <mxPoint x="110" y="260" as="sourcePoint" />
            <mxPoint x="160" y="210" as="targetPoint" />
          </mxGeometry>
        </mxCell>
      </root>
    </mxGraphModel>
  </diagram>
</mxfile>
